<?xml version="1.0" encoding="utf-8"?>
<!-- Generator: Adobe Illustrator 25.4.1, SVG Export Plug-In . SVG Version: 6.00 Build 0)  -->
<svg version="1.1" id="Calque_1" xmlns="http://www.w3.org/2000/svg" xmlns:xlink="http://www.w3.org/1999/xlink" x="0px" y="0px"
	 viewBox="0 0 800 800" style="enable-background:new 0 0 800 800;" xml:space="preserve">
<style type="text/css">
	.st0{clip-path:url(#SVGID_00000054983162659614146300000015734417239038197164_);}
	.st1{opacity:0.2;enable-background:new    ;}
	.st2{fill:#333333;}
	.st3{fill:#FCE5B9;}
	.st4{fill:#FFECC5;}
	.st5{fill:#868686;}
	.st6{fill:#575756;}
</style>
<g>
	<defs>
		<rect id="SVGID_1_" x="181.4" y="7.1" width="437.1" height="785.7"/>
	</defs>
	<clipPath id="SVGID_00000141416262722039955840000002175199636259244729_">
		<use xlink:href="#SVGID_1_"  style="overflow:visible;"/>
	</clipPath>
	<g style="clip-path:url(#SVGID_00000141416262722039955840000002175199636259244729_);">
		<g>
			<g>
				<ellipse class="st1" cx="397.6" cy="885.8" rx="171.9" ry="8.8"/>
			</g>
			<polygon class="st2" points="181.4,574 399.5,792.9 618.6,574 399.5,461.3 			"/>
			<path class="st3" d="M301.1,511.9c0,0,66.5,67.3,99.7,67.3c33.2,0,99.7-67.3,99.7-67.3l-99.7-51.1L301.1,511.9z"/>
			<path class="st4" d="M589.8,237.8c0-8.1-4.1-16.2-4.1-28.4c0-1.6,0-3.2,0-5.7c-0.8-18.7-7.3-34.1-17-46.2l0,0
				c0,0,33.3-56-141.1-78.7c-132.2-17-159.8,30.8-166.2,54.4c-26,13-34.1,27.6-36.5,63.3c0,1.6,1.6,7.3,1.6,9.7
				c0,12.2-12.2,22.7-12.2,30.8c0,0-34.9,73,34.1,108.7c0,0,72.2,177.6,149.2,177.6l0,0c77.8,0,150-176,150-176
				C618.1,314,589.8,237.8,589.8,237.8L589.8,237.8z"/>
			<path class="st5" d="M560.6,297.8c0,0-41.4,127.3-89.2,124.1l-22.7-3.2l-47.8-7.1v-0.2l-0.8,0.2l-0.8-0.1v0.2l-47.8,7.1
				l-23.5,1.6C280,423.6,241,302.8,241,302.8c38.6,209.9,147.8,222.2,158.2,223v0c0,0,0.1,0,0.3,0c0.3,0,0.5,0,0.5,0v-0.1
				C410.6,524.5,522.6,507.1,560.6,297.8L560.6,297.8z M400,486.8c-47,0-47.8-36.5-47.8-36.5l4.1-17l43.7-4l43.1,4.8l4.1,17
				C447,451.2,447.1,486.8,400,486.8L400,486.8z"/>
			<path class="st6" d="M498.9,27.8L498.9,27.8L498.9,27.8c-10.5-5.7-20.3-8.9-30.8-11.4c-59.2-17-111.1-7.3-139.5,1.6
				c-8.1,2.4-16.2,4.9-23.5,8.9l0,0l0,0c-47,22.7-92.4,79.5-90.8,212.5c0,0,25.9,9.8,27.5,67.3c0,0,3.2-84.3,17-86.8
				c0,0-12.2-113.5,43.8-113.5c0,0,60.8,68.9,98.9,68.1l0,0h0.8h0.8l0,0c34.1,0,98.9-68.1,98.9-68.1c55.1,0,43.8,113.5,43.8,113.5
				c13.8,2.4,14.5,77.9,14.5,77.9c1.6-57.6,30-58.4,30-58.4C589.8,107.3,544.3,50.6,498.9,27.8L498.9,27.8z"/>
		</g>
		<g>
			<path class="st6" d="M354.3,271.4c0-1.7,0.5-3.2,1.3-4.5c-2.4-1.6-5.3-2.6-8.5-2.6c-8.4,0-15.2,6.8-15.2,15.2
				c0,8.4,6.8,15.2,15.2,15.2c8.3,0,15.1-6.7,15.2-14.9C357.9,279.6,354.3,275.9,354.3,271.4L354.3,271.4z"/>
			<path class="st6" d="M457.6,271.4c0-1.7,0.5-3.2,1.3-4.5c-2.4-1.6-5.3-2.6-8.5-2.6c-8.4,0-15.2,6.8-15.2,15.2
				c0,8.4,6.8,15.2,15.2,15.2c8.3,0,15.1-6.7,15.2-14.9C461.1,279.6,457.5,275.9,457.6,271.4L457.6,271.4z"/>
		</g>
	</g>
</g>
</svg>
