<svg xmlns="http://www.w3.org/2000/svg" width="55.634" height="63.585" viewBox="0 0 55.634 63.585">
  <path id="user-graduate-solid" d="M39.664,39.791,27.817,51.638,15.97,39.791A16.653,16.653,0,0,0,0,56.407V57.6A5.962,5.962,0,0,0,5.961,63.56H49.673A5.962,5.962,0,0,0,55.634,57.6V56.407A16.653,16.653,0,0,0,39.664,39.791ZM1.689,9.888l.795.186v7.252a2.869,2.869,0,0,0-.112,4.967L.435,30.03c-.211.857.261,1.739.944,1.739H6.569c.683,0,1.155-.882.944-1.739L5.576,22.294a2.869,2.869,0,0,0-.112-4.967V10.794l8.2,1.975a15.867,15.867,0,1,0,30.052,7.078,15.612,15.612,0,0,0-1.739-7.078L53.932,9.888a1.976,1.976,0,0,0,0-3.912L30.288.264a10.667,10.667,0,0,0-4.93,0L1.689,5.964A1.985,1.985,0,0,0,1.689,9.888Z" transform="translate(0 0.025)"/>
</svg>
